<?xml version="1.0" encoding="UTF-8" standalone="no"?>
<!-- Created with Inkscape (http://www.inkscape.org/) -->

<svg
   width="210mm"
   height="297mm"
   viewBox="0 0 210 297"
   version="1.1"
   id="svg157"
   inkscape:version="1.1.2 (0a00cf5339, 2022-02-04)"
   sodipodi:docname="speedo3.svg"
   inkscape:export-filename="/home/yango/proj/ets2-tele/webclient/needle.png"
   inkscape:export-xdpi="96"
   inkscape:export-ydpi="96"
   xmlns:inkscape="http://www.inkscape.org/namespaces/inkscape"
   xmlns:sodipodi="http://sodipodi.sourceforge.net/DTD/sodipodi-0.dtd"
   xmlns="http://www.w3.org/2000/svg"
   xmlns:svg="http://www.w3.org/2000/svg">
  <sodipodi:namedview
     id="namedview159"
     pagecolor="#ffffff"
     bordercolor="#666666"
     borderopacity="1.0"
     inkscape:pageshadow="2"
     inkscape:pageopacity="0.0"
     inkscape:pagecheckerboard="0"
     inkscape:document-units="mm"
     showgrid="false"
     inkscape:zoom="1.2969159"
     inkscape:cx="286.44881"
     inkscape:cy="559.78959"
     inkscape:window-width="1920"
     inkscape:window-height="1013"
     inkscape:window-x="0"
     inkscape:window-y="0"
     inkscape:window-maximized="1"
     inkscape:current-layer="layer3"
     inkscape:snap-object-midpoints="true" />
  <defs
     id="defs154">
    <inkscape:path-effect
       effect="skeletal"
       id="path-effect1756"
       is_visible="true"
       lpeversion="1"
       pattern="m -71.981112,103.82446 v 9.60823 h 1.44137 v -9.60823 z m 2.55008,0 v 7.20611 h 1.20106 v -7.20611 z m 2.550321,0 v 7.20611 h 1.20081 v -7.20611 z m 2.550077,0 v 7.20611 h 1.201057 v -7.20611 z m 2.550074,0 v 7.20611 h 1.201059 v -7.20611 z m 2.550077,0 v 9.60823 h 1.441368 v -9.60823 z"
       copytype="repeated_stretched"
       prop_scale="1"
       scale_y_rel="false"
       spacing="-1.5"
       normal_offset="0"
       tang_offset="127"
       prop_units="false"
       vertical_pattern="false"
       hide_knot="false"
       fuse_tolerance="0" />
  </defs>
  <g
     inkscape:label="Capa 1"
     inkscape:groupmode="layer"
     id="layer1"
     sodipodi:insensitive="true"
     style="display:none">
    <path
       id="path1243"
       style="fill:none;fill-rule:evenodd;stroke:#000000;stroke-width:0.495323"
       d="m 65.489164,171.37159 7.96274,-5.27547 c -0.247737,-0.37191 -0.490139,-0.74699 -0.727058,-1.12508 l -8.101631,5.04645 c 0.282254,0.4554 0.570953,0.90681 0.865949,1.3541 z m -1.505775,-2.41196 6.15335,-3.64975 c -0.199453,-0.33526 -0.394852,-0.67271 -0.586112,-1.01225 l -6.234067,3.50055 c 0.217664,0.38977 0.439969,0.77695 0.666829,1.16145 z m -1.382705,-2.48478 6.321158,-3.32935 c -0.181812,-0.34407 -0.359391,-0.69014 -0.532649,-1.03812 l -6.395477,3.17378 c 0.197531,0.40034 0.399882,0.79826 0.606968,1.19369 z m -1.254438,-2.5522 6.475396,-2.99542 c -0.163475,-0.35224 -0.322532,-0.70631 -0.477084,-1.06211 l -6.543345,2.83344 c 0.176701,0.41029 0.358407,0.81835 0.545033,1.22409 z m -1.121373,-2.61491 6.616079,-2.64793 c -0.144326,-0.35958 -0.28405,-0.7208 -0.419088,-1.08356 l -6.677645,2.47957 c 0.155059,0.41939 0.315305,0.83672 0.480654,1.25192 z m -0.983378,-2.6727 8.991023,-3.04922 c -0.141733,-0.41629 -0.276817,-0.83443 -0.405105,-1.25428 l -9.078838,2.76913 c 0.156597,0.51417 0.320953,1.02568 0.49292,1.53437 z m 0.02102,0.0621 8.987328,-3.06049 c -0.142273,-0.41614 -0.277905,-0.83414 -0.406745,-1.25385 l -9.075379,2.78064 c 0.157228,0.51396 0.32221,1.02524 0.494796,1.5337 z m -0.843789,-2.72438 6.854325,-1.92107 c -0.104187,-0.3718 -0.203412,-0.74486 -0.29759,-1.11912 l -6.903269,1.74009 c 0.109991,0.43508 0.225531,0.86848 0.346534,1.3001 z m -0.696095,-2.77268 6.954666,-1.5332 c -0.08271,-0.37674 -0.160281,-0.75457 -0.232623,-1.13341 l -6.997218,1.34587 c 0.08602,0.44178 0.177779,0.88206 0.275175,1.32074 z m -0.543335,-2.81551 7.041444,-1.13181 c -0.0605,-0.38107 -0.115669,-0.76305 -0.165429,-1.14585 l -7.07762,0.93807 c 0.06132,0.44788 0.128547,0.89444 0.201605,1.33959 z m -0.385714,-2.85367 7.114668,-0.71686 c -0.03749,-0.38455 -0.06948,-0.76982 -0.09587,-1.15573 l -7.14446,0.51674 c 0.03582,0.45312 0.07773,0.9051 0.125658,1.35585 z m -0.22316,-2.88689 9.565866,-0.3845 c -0.01313,-0.43738 -0.01831,-0.87532 -0.01539,-1.31364 l -9.602841,0.0536 c 0.0084,0.5496 0.02594,1.09784 0.05236,1.64457 z m 0.0033,0.0667 9.564239,-0.39783 c -0.01378,-0.43735 -0.01961,-0.87524 -0.01735,-1.31354 l -9.601449,0.0671 c 0.0092,0.54949 0.02741,1.09761 0.05456,1.64422 z m -0.04079,-2.912 7.191277,0.14196 c 0.0056,-0.38797 0.01692,-0.77546 0.03392,-1.16239 l -7.166998,-0.34761 c -0.0256,0.45497 -0.04502,0.91101 -0.0582,1.36804 z m 0.16769,-2.89719 7.136137,0.57504 c 0.02962,-0.38545 0.0648,-0.77024 0.105471,-1.15428 l -7.10548,-0.77425 c -0.05139,0.44994 -0.09679,0.90113 -0.136128,1.35349 z m 0.331887,-2.86533 7.067447,0.99452 c 0.05289,-0.38232 0.111165,-0.76379 0.174743,-1.14432 l -7.0304,-1.18739 c -0.07643,0.44433 -0.147053,0.89008 -0.21179,1.33719 z m 0.491158,-2.82882 6.985204,1.40044 c 0.07538,-0.37833 0.155961,-0.75562 0.241664,-1.1318 l -6.941773,-1.58693 c -0.10068,0.43784 -0.195741,0.8773 -0.285095,1.31829 z m 0.645495,-2.78738 9.185954,2.39043 c 0.110078,-0.42408 0.227149,-0.84666 0.351064,-1.26759 l -9.105763,-2.67814 c -0.151608,0.51587 -0.295409,1.03435 -0.431255,1.5553 z m -0.01654,0.0636 9.189094,2.3786 c 0.109509,-0.42421 0.226017,-0.84692 0.349375,-1.26797 l -9.109138,-2.66655 c -0.150973,0.51608 -0.294133,1.03477 -0.429331,1.55592 z m 0.791519,-2.74213 6.782721,2.16306 c 0.117561,-0.36815 0.239967,-0.73492 0.367131,-1.10021 l -6.726669,-2.33693 c -0.146349,0.42275 -0.287439,0.84747 -0.423183,1.27408 z m 0.936197,-2.69118 6.660114,2.52867 c 0.137719,-0.36179 0.280097,-0.722 0.427049,-1.08055 l -6.597691,-2.69612 c -0.168261,0.41387 -0.331447,0.8299 -0.489472,1.248 z m 1.075762,-2.63479 6.523965,2.88068 c 0.157156,-0.35479 0.318791,-0.70782 0.484819,-1.059 l -6.455145,-3.04179 c -0.189469,0.40439 -0.374044,0.81112 -0.553639,1.22011 z m 1.210475,-2.57373 6.374261,3.21915 c 0.17579,-0.34694 0.355877,-0.69194 0.540176,-1.03492 l -6.299058,-3.37386 c -0.209867,0.39404 -0.415022,0.79062 -0.615379,1.18963 z m 1.340255,-2.50772 8.281411,4.72544 c 0.221716,-0.38603 0.449118,-0.76924 0.682056,-1.1495 l -8.150379,-4.96231 c -0.277578,0.45824 -0.548657,0.92042 -0.813088,1.38637 z m -0.03224,0.0569 8.286618,4.71569 c 0.221254,-0.38626 0.448199,-0.76971 0.680687,-1.15021 l -8.155821,-4.95279 c -0.27705,0.45856 -0.547594,0.92105 -0.811484,1.38731 z m 1.462287,-2.43849 6.03841,3.84841 c 0.210351,-0.32915 0.424638,-0.656 0.642776,-0.98046 l -5.950585,-3.9905 c -0.247914,0.37132 -0.491476,0.74554 -0.730601,1.12255 z m 1.582468,-2.36294 5.848337,4.14654 c 0.226633,-0.31893 0.457019,-0.63538 0.691072,-0.94926 l -5.754148,-4.28222 c -0.26595,0.3586 -0.527732,0.72028 -0.785261,1.08494 z m 1.697412,-2.28203 5.644728,4.4311 c 0.242234,-0.30807 0.488039,-0.61347 0.73733,-0.91612 l -5.544135,-4.56043 c -0.283323,0.34526 -0.562659,0.69377 -0.837923,1.04545 z m 1.807567,-2.1964 5.427565,4.7021 c 0.257012,-0.29637 0.517414,-0.58989 0.78112,-0.88047 l -5.320588,-4.82505 c -0.299865,0.33107 -0.595926,0.66557 -0.888097,1.00342 z m 1.912791,-2.10585 6.929189,6.61279 c 0.310327,-0.32495 0.625031,-0.64577 0.943965,-0.96232 l -6.747317,-6.79883 c -0.38052,0.3776 -0.755849,0.76044 -1.125837,1.14836 z m -0.04512,0.0474 6.936466,6.60511 c 0.30997,-0.32529 0.624325,-0.64645 0.942914,-0.96335 l -6.754827,-6.79137 c -0.380098,0.37803 -0.754999,0.76128 -1.124553,1.14961 z m 2.010831,-2.01261 4.958344,5.19799 c 0.283951,-0.27095 0.570931,-0.53869 0.860854,-0.80314 l -4.838746,-5.30832 c -0.33029,0.30073 -0.657136,0.60524 -0.980452,0.91347 z m 2.106502,-1.91247 4.700805,5.42866 c 0.296364,-0.25689 0.595572,-0.51039 0.89754,-0.76041 l -4.574849,-5.53258 c -0.344454,0.28416 -0.685648,0.5723 -1.023496,0.86433 z m 2.196838,-1.80704 4.429736,5.64576 c 0.308122,-0.24216 0.618909,-0.48075 0.932273,-0.71567 l -4.29737,-5.74332 c -0.357987,0.266945 -0.712895,0.53805 -1.064639,0.81323 z m 2.282434,-1.696859 4.145113,5.849299 c 0.319046,-0.2266 0.640574,-0.44944 0.964498,-0.66845 l -4.006363,-5.940476 c -0.370675,0.248896 -0.738453,0.502134 -1.103248,0.759627 z m 2.363101,-1.581744 5.129292,8.052463 c 0.375909,-0.24084 0.754888,-0.47624 1.136788,-0.70607 l -4.896579,-8.187648 c -0.460434,0.273927 -0.916983,0.554395 -1.369501,0.841255 z m -0.0552,0.03504 5.138636,8.046833 c 0.375659,-0.24127 0.754394,-0.47713 1.136057,-0.70741 l -4.906157,-8.182256 c -0.460118,0.274459 -0.916347,0.555453 -1.368536,0.842833 z m 2.437149,-1.464513 3.542523,6.211816 c 0.338364,-0.19356 0.678847,-0.38301 1.021366,-0.56826 l -3.391153,-6.290371 c -0.393476,0.210931 -0.784417,0.426564 -1.172736,0.646815 z m 2.5083,-1.339764 3.217517,6.37503 c 0.34691,-0.17567 0.695756,-0.34703 1.046454,-0.51402 L 88.9461,93.686399 c -0.403773,0.190535 -0.805193,0.385953 -1.204175,0.586169 z m 2.574038,-1.209827 2.878989,6.524667 c 0.354823,-0.157062 0.711402,-0.309644 1.06965,-0.457659 L 91.549752,92.5393 c -0.413462,0.169442 -0.824754,0.343951 -1.233789,0.523441 z m 2.635077,-1.075087 2.526906,6.66075 c 0.361892,-0.13765 0.725357,-0.270637 1.090309,-0.398875 l -2.356383,-6.720147 c -0.422295,0.147536 -0.842601,0.300322 -1.260832,0.458272 z m 2.691187,-0.935416 2.881717,9.04445 c 0.418462,-0.133695 0.838687,-0.260652 1.260526,-0.380723 l -2.598163,-9.128798 c -0.517319,0.147225 -1.032062,0.302298 -1.54408,0.465071 z m -0.06247,0.0199 2.893129,9.0409 c 0.418319,-0.134246 0.838407,-0.261757 1.260116,-0.382388 l -2.609811,-9.12548 c -0.51711,0.147863 -1.031638,0.303569 -1.543434,0.466968 z m 2.741242,-0.794191 1.790956,6.889899 c 0.37358,-0.09699 0.74838,-0.188958 1.12431,-0.275816 l -1.607812,-6.936677 c -0.437475,0.101949 -0.873321,0.209509 -1.307454,0.322594 z m 2.787866,-0.644819 1.39848,6.985641 c 0.37827,-0.07525 0.75757,-0.145305 1.13781,-0.210066 l -1.20899,-7.026025 c -0.44391,0.07772 -0.88637,0.161234 -1.3273,0.25045 z m 2.82901,-0.490387 0.99249,7.067817 c 0.38234,-0.05278 0.76552,-0.100164 1.14946,-0.142078 l -0.79657,-7.101826 c -0.44975,0.05275 -0.89824,0.111473 -1.34538,0.176087 z m 2.8655,-0.331093 0.57294,7.136441 c 0.38555,-0.02951 0.77176,-0.05345 1.15856,-0.07173 l -0.37065,-7.164066 c -0.45473,0.02699 -0.90837,0.06013 -1.36085,0.09935 z m 2.89705,-0.166863 0.18646,9.588763 c 0.24515,-0.002 0.49047,-0.0014 0.73588,0.0017 0.19303,-0.0024 0.386,-0.0033 0.57887,-0.0026 l 0.14681,-9.593071 c -0.24162,-0.0059 -0.48352,-0.01014 -0.72567,-0.01257 -0.30788,0.0031 -0.61534,0.009 -0.92235,0.0178 z m -0.0669,0.002 0.19994,9.587277 c 0.26297,-0.0025 0.52608,-0.0021 0.78934,0.0012 0.1752,-0.0022 0.35033,-0.0031 0.5254,-0.0027 l 0.1333,-9.594518 c -0.21935,-0.0051 -0.43892,-0.0088 -0.65869,-0.01097 -0.33025,0.0033 -0.66002,0.0099 -0.98928,0.01976 z m 2.91218,0.03664 -0.29046,7.174083 c 0.38723,0.01383 0.77392,0.03335 1.15998,0.05847 l 0.49394,-7.147637 c -0.45338,-0.03444 -0.90789,-0.06278 -1.36346,-0.08492 z m 2.88702,0.223984 -0.71893,7.114341 c 0.38444,0.0376 0.76817,0.08071 1.15107,0.129231 l 0.91599,-7.081518 c -0.44809,-0.05997 -0.89749,-0.114014 -1.34813,-0.162054 z m 2.8535,0.386501 -1.13382,7.041051 c 0.38105,0.06061 0.76119,0.126543 1.14033,0.197717 l 1.32452,-7.001837 c -0.44221,-0.08475 -0.88591,-0.163752 -1.33103,-0.236931 z m 2.81529,0.544096 -1.53512,6.954207 c 0.37679,0.08284 0.7525,0.170815 1.12702,0.263851 l 1.71946,-6.908609 c -0.43547,-0.108737 -0.87261,-0.211915 -1.31136,-0.309449 z m 2.77219,0.696759 -2.56389,9.138491 c 0.42222,0.118423 0.84285,0.24375 1.26173,0.375832 l 2.84814,-9.054833 c -0.51267,-0.16093 -1.02804,-0.314143 -1.54598,-0.45949 z m -0.0632,-0.0177 -2.55221,9.141772 c 0.42235,0.117861 0.84311,0.242632 1.26214,0.374161 l 2.83669,-9.058345 c -0.51288,-0.160303 -1.02847,-0.312881 -1.54662,-0.457588 z m 2.72531,0.841147 -2.28867,6.742629 c 0.3661,0.124499 0.73075,0.25378 1.09387,0.387758 l 2.46037,-6.68441 c -0.41985,-0.153885 -0.84174,-0.302573 -1.26557,-0.445977 z m 2.67267,0.984155 -2.64966,6.615421 c 0.35947,0.144392 0.71731,0.293381 1.07342,0.446883 l 2.81495,-6.550832 c -0.41071,-0.175532 -0.82364,-0.346052 -1.23871,-0.511472 z m 2.61462,1.12204 -2.99709,6.474671 c 0.35221,0.16357 0.70261,0.33155 1.05109,0.50387 l 3.15602,-6.403686 c -0.40096,-0.19648 -0.80433,-0.388127 -1.21002,-0.574855 z m 2.55189,1.255078 -3.33095,6.320363 c 0.34409,0.18194 0.6862,0.36812 1.0262,0.55844 l 3.4835,-6.242996 c -0.39036,-0.216615 -0.78331,-0.428579 -1.17875,-0.635807 z m 2.48419,1.383184 -4.86838,8.203419 c 0.38259,0.22849 0.76229,0.46258 1.13893,0.70211 l 5.10178,-8.068918 c -0.45348,-0.28533 -0.91097,-0.56425 -1.37233,-0.836611 z m -0.0563,-0.03321 -4.85876,8.208769 c 0.38283,0.22804 0.76276,0.46167 1.13965,0.70077 l 5.0924,-8.07451 c -0.4538,-0.284808 -0.91162,-0.563201 -1.37329,-0.835029 z m 2.41332,1.50358 -3.95111,5.975429 c 0.3258,0.21598 0.64923,0.43583 0.97021,0.65947 l 4.09103,-5.88543 c -0.36712,-0.254142 -0.7372,-0.503993 -1.11013,-0.749469 z m 2.33611,1.622089 -4.24465,5.78075 c 0.31531,0.232 0.62807,0.46769 0.93821,0.70698 l 4.37817,-5.684393 c -0.35414,-0.271913 -0.71141,-0.539721 -1.07173,-0.803337 z m 2.25352,1.73536 -4.52459,5.57254 c 0.30418,0.24733 0.60562,0.49818 0.90428,0.75245 l 4.65175,-5.46978 c -0.34053,-0.28902 -0.68437,-0.57412 -1.03144,-0.85521 z m 2.16623,1.84383 -4.79101,5.35078 c 0.29221,0.26185 0.58152,0.52703 0.86784,0.79545 l 4.91179,-5.24163 c -0.32608,-0.3053 -0.65565,-0.60686 -0.98862,-0.9046 z m 2.07399,1.94739 -6.7252,6.82066 c 0.31994,0.31553 0.63567,0.63535 0.94704,0.95931 l 6.90775,-6.63532 c -0.37126,-0.3867 -0.74783,-0.7683 -1.12959,-1.14465 z m -0.0466,-0.0459 -6.71764,6.82808 c 0.32028,0.31518 0.63636,0.63466 0.94809,0.95828 l 6.90044,-6.64298 c -0.37169,-0.38628 -0.74871,-0.76746 -1.13089,-1.14338 z m 1.97911,2.04378 -5.2778,4.87246 c 0.26629,0.28827 0.5293,0.57951 0.78896,0.87363 l 5.38595,-4.75069 c -0.29521,-0.33521 -0.59426,-0.66704 -0.89711,-0.9954 z m 1.8773,2.13779 -5.50387,4.61032 c 0.25196,0.30042 0.50047,0.60362 0.74544,0.90952 l 5.60562,-4.48219 c -0.27839,-0.34911 -0.56081,-0.69502 -0.84719,-1.03765 z m 1.7702,2.22645 -5.71637,4.33464 c 0.23696,0.31192 0.47029,0.62644 0.69991,0.94348 l 5.81175,-4.20012 c -0.2609,-0.36238 -0.52603,-0.72174 -0.79529,-1.078 z m 1.65833,2.31036 -5.91531,4.04543 c 0.22115,0.32258 0.43848,0.64757 0.6519,0.9749 l 6.00432,-3.9045 c -0.24259,-0.37481 -0.48958,-0.74678 -0.74091,-1.11583 z m 1.54155,2.38936 -8.13433,4.99024 c 0.23426,0.37954 0.463,0.76207 0.68607,1.14742 l 8.26606,-4.75406 c -0.26602,-0.46504 -0.53867,-0.92629 -0.8178,-1.3836 z m -0.0341,-0.0558 -8.12886,4.99972 c 0.23471,0.3793 0.46391,0.76159 0.68744,1.14671 l 8.26081,-4.76378 c -0.26655,-0.46473 -0.53973,-0.92567 -0.81939,-1.38265 z m 1.42269,2.46177 -6.26874,3.43374 c 0.18759,0.34137 0.37101,0.6848 0.55015,1.03021 l 6.34512,-3.2802 c -0.20411,-0.39709 -0.41298,-0.7917 -0.62653,-1.18375 z m 1.29625,2.53124 -6.42733,3.10414 c 0.16942,0.34965 0.33448,0.70119 0.49511,1.05451 l 6.49733,-2.94424 c -0.18345,-0.40712 -0.37185,-0.81195 -0.56511,-1.21441 z m 1.16464,2.59531 -6.57237,2.76101 c 0.15056,0.35731 0.29657,0.71631 0.43796,1.07692 l 6.63599,-2.5947 c -0.16209,-0.41654 -0.32931,-0.83098 -0.50158,-1.24323 z m 1.02823,2.65468 -6.70384,2.40432 c 0.13087,0.36411 0.25703,0.72974 0.37838,1.09679 l 6.76109,-2.23163 c -0.13992,-0.42512 -0.28515,-0.8483 -0.43563,-1.26948 z m 0.88689,2.70911 -9.09579,2.71213 c 0.12555,0.42053 0.24427,0.84273 0.35602,1.26645 l 9.17667,-2.42511 c -0.13774,-0.52036 -0.28343,-1.03823 -0.4369,-1.55347 z m -0.0188,-0.0629 -9.09238,2.72369 c 0.12612,0.42039 0.24539,0.84246 0.35771,1.26606 l 9.17349,-2.4369 c -0.13839,-0.52016 -0.28471,-1.03782 -0.43882,-1.55285 z m 0.74403,2.75753 -6.92391,1.65927 c 0.0897,0.37529 0.17432,0.75173 0.25377,1.12923 l 6.96853,-1.47395 c -0.0938,-0.43978 -0.19331,-0.87799 -0.29839,-1.31455 z m 0.59298,2.80248 -7.01505,1.26219 c 0.0677,0.37971 0.13014,0.76039 0.18724,1.14195 l 7.05327,-1.07054 c -0.0693,-0.44595 -0.14451,-0.89051 -0.22546,-1.3336 z m 0.43688,2.84195 -7.09264,0.8516 c 0.045,0.38351 0.0845,0.76781 0.11845,1.15281 l 7.12448,-0.65353 c -0.0441,-0.45152 -0.0942,-0.90185 -0.15029,-1.35088 z m 0.2759,2.87675 -7.15665,0.42747 c 0.0214,0.38646 0.0372,0.77352 0.0473,1.16111 l 7.18211,-0.223 c -0.0181,-0.45624 -0.0423,-0.91146 -0.0728,-1.36558 z m 0.11,2.90664 -9.60958,-0.0137 c -0.006,0.43848 -0.0205,0.87733 -0.0431,1.31639 l 9.63962,0.35151 c 0.0136,-0.55264 0.0179,-1.10411 0.0131,-1.65425 z"
       inkscape:path-effect="#path-effect1756"
       inkscape:original-d="M 159.92673,142.73505 A 49.303957,49.303957 0 0 1 110.62277,192.03901 49.303957,49.303957 0 0 1 61.318821,142.73505 49.303957,49.303957 0 0 1 110.62277,93.431102 49.303957,49.303957 0 0 1 159.92673,142.73505 Z" />
    <text
       xml:space="preserve"
       style="font-style:normal;font-weight:normal;font-size:8.46667px;line-height:1.25;font-family:sans-serif;fill:#000000;fill-opacity:1;stroke:none;stroke-width:0.264583"
       x="44.700584"
       y="161.35483"
       id="text4215"><tspan
         sodipodi:role="line"
         id="tspan4213"
         style="font-style:normal;font-variant:normal;font-weight:bold;font-stretch:normal;font-size:8.46667px;font-family:FreeMono;-inkscape-font-specification:'FreeMono Bold';stroke-width:0.264583"
         x="44.700584"
         y="161.35483">10</tspan></text>
    <text
       xml:space="preserve"
       style="font-style:normal;font-weight:normal;font-size:8.46667px;line-height:1.25;font-family:sans-serif;fill:#000000;fill-opacity:1;stroke:none;stroke-width:0.264583"
       x="42.952984"
       y="146.54965"
       id="text4215-5"><tspan
         sodipodi:role="line"
         id="tspan4213-4"
         style="font-style:normal;font-variant:normal;font-weight:bold;font-stretch:normal;font-size:8.46667px;font-family:FreeMono;-inkscape-font-specification:'FreeMono Bold';stroke-width:0.264583"
         x="42.952984"
         y="146.54965">20</tspan></text>
    <text
       xml:space="preserve"
       style="font-style:normal;font-weight:normal;font-size:8.46667px;line-height:1.25;font-family:sans-serif;fill:#000000;fill-opacity:1;stroke:none;stroke-width:0.264583"
       x="44.650723"
       y="130.66673"
       id="text4215-1"><tspan
         sodipodi:role="line"
         id="tspan4213-2"
         style="font-style:normal;font-variant:normal;font-weight:bold;font-stretch:normal;font-size:8.46667px;font-family:FreeMono;-inkscape-font-specification:'FreeMono Bold';stroke-width:0.264583"
         x="44.650723"
         y="130.66673">30</tspan></text>
    <text
       xml:space="preserve"
       style="font-style:normal;font-weight:normal;font-size:8.46667px;line-height:1.25;font-family:sans-serif;fill:#000000;fill-opacity:1;stroke:none;stroke-width:0.264583"
       x="49.115387"
       y="115.33487"
       id="text4215-8"><tspan
         sodipodi:role="line"
         id="tspan4213-9"
         style="font-style:normal;font-variant:normal;font-weight:bold;font-stretch:normal;font-size:8.46667px;font-family:FreeMono;-inkscape-font-specification:'FreeMono Bold';stroke-width:0.264583"
         x="49.115387"
         y="115.33487">40</tspan></text>
    <text
       xml:space="preserve"
       style="font-style:normal;font-weight:normal;font-size:8.46667px;line-height:1.25;font-family:sans-serif;fill:#000000;fill-opacity:1;stroke:none;stroke-width:0.264583"
       x="59.125278"
       y="101.74654"
       id="text4215-3"><tspan
         sodipodi:role="line"
         id="tspan4213-6"
         style="font-style:normal;font-variant:normal;font-weight:bold;font-stretch:normal;font-size:8.46667px;font-family:FreeMono;-inkscape-font-specification:'FreeMono Bold';stroke-width:0.264583"
         x="59.125278"
         y="101.74654">50</tspan></text>
    <text
       xml:space="preserve"
       style="font-style:normal;font-weight:normal;font-size:8.46667px;line-height:1.25;font-family:sans-serif;fill:#000000;fill-opacity:1;stroke:none;stroke-width:0.264583"
       x="72.736382"
       y="91.829811"
       id="text4215-80"><tspan
         sodipodi:role="line"
         id="tspan4213-21"
         style="font-style:normal;font-variant:normal;font-weight:bold;font-stretch:normal;font-size:8.46667px;font-family:FreeMono;-inkscape-font-specification:'FreeMono Bold';stroke-width:0.264583"
         x="72.736382"
         y="91.829811">60</tspan></text>
    <text
       xml:space="preserve"
       style="font-style:normal;font-weight:normal;font-size:8.46667px;line-height:1.25;font-family:sans-serif;fill:#000000;fill-opacity:1;stroke:none;stroke-width:0.264583"
       x="88.606873"
       y="86.947517"
       id="text4215-0"><tspan
         sodipodi:role="line"
         id="tspan4213-5"
         style="font-style:normal;font-variant:normal;font-weight:bold;font-stretch:normal;font-size:8.46667px;font-family:FreeMono;-inkscape-font-specification:'FreeMono Bold';stroke-width:0.264583"
         x="88.606873"
         y="86.947517">70</tspan></text>
    <text
       xml:space="preserve"
       style="font-style:normal;font-weight:normal;font-size:8.46667px;line-height:1.25;font-family:sans-serif;fill:#000000;fill-opacity:1;stroke:none;stroke-width:0.264583"
       x="106.22649"
       y="85.093292"
       id="text4215-11"><tspan
         sodipodi:role="line"
         id="tspan4213-0"
         style="font-style:normal;font-variant:normal;font-weight:bold;font-stretch:normal;font-size:8.46667px;font-family:FreeMono;-inkscape-font-specification:'FreeMono Bold';stroke-width:0.264583"
         x="106.22649"
         y="85.093292">80</tspan></text>
    <text
       xml:space="preserve"
       style="font-style:normal;font-weight:normal;font-size:8.46667px;line-height:1.25;font-family:sans-serif;fill:#000000;fill-opacity:1;stroke:none;stroke-width:0.264583"
       x="122.36957"
       y="86.657494"
       id="text4215-85"><tspan
         sodipodi:role="line"
         id="tspan4213-06"
         style="font-style:normal;font-variant:normal;font-weight:bold;font-stretch:normal;font-size:8.46667px;font-family:FreeMono;-inkscape-font-specification:'FreeMono Bold';stroke-width:0.264583"
         x="122.36957"
         y="86.657494">90</tspan></text>
    <text
       xml:space="preserve"
       style="font-style:normal;font-weight:normal;font-size:8.46667px;line-height:1.25;font-family:sans-serif;fill:#000000;fill-opacity:1;stroke:none;stroke-width:0.264583"
       x="136.85309"
       y="91.753593"
       id="text4215-4"><tspan
         sodipodi:role="line"
         id="tspan4213-62"
         style="font-style:normal;font-variant:normal;font-weight:bold;font-stretch:normal;font-size:8.46667px;font-family:FreeMono;-inkscape-font-specification:'FreeMono Bold';stroke-width:0.264583"
         x="136.85309"
         y="91.753593">100</tspan></text>
    <text
       xml:space="preserve"
       style="font-style:normal;font-weight:normal;font-size:8.46667px;line-height:1.25;font-family:sans-serif;fill:#000000;fill-opacity:1;stroke:none;stroke-width:0.264583"
       x="150.38606"
       y="103.1121"
       id="text4215-58"><tspan
         sodipodi:role="line"
         id="tspan4213-628"
         style="font-style:normal;font-variant:normal;font-weight:bold;font-stretch:normal;font-size:8.46667px;font-family:FreeMono;-inkscape-font-specification:'FreeMono Bold';stroke-width:0.264583"
         x="150.38606"
         y="103.1121">110</tspan></text>
    <text
       xml:space="preserve"
       style="font-style:normal;font-weight:normal;font-size:8.46667px;line-height:1.25;font-family:sans-serif;fill:#000000;fill-opacity:1;stroke:none;stroke-width:0.264583"
       x="159.02858"
       y="114.83189"
       id="text4215-47"><tspan
         sodipodi:role="line"
         id="tspan4213-24"
         style="font-style:normal;font-variant:normal;font-weight:bold;font-stretch:normal;font-size:8.46667px;font-family:FreeMono;-inkscape-font-specification:'FreeMono Bold';stroke-width:0.264583"
         x="159.02858"
         y="114.83189">120</tspan></text>
    <text
       xml:space="preserve"
       style="font-style:normal;font-weight:normal;font-size:8.46667px;line-height:1.25;font-family:sans-serif;fill:#000000;fill-opacity:1;stroke:none;stroke-width:0.264583"
       x="165.66599"
       y="129.33408"
       id="text4215-06"><tspan
         sodipodi:role="line"
         id="tspan4213-29"
         style="font-style:normal;font-variant:normal;font-weight:bold;font-stretch:normal;font-size:8.46667px;font-family:FreeMono;-inkscape-font-specification:'FreeMono Bold';stroke-width:0.264583"
         x="165.66599"
         y="129.33408">130</tspan></text>
    <text
       xml:space="preserve"
       style="font-style:normal;font-weight:normal;font-size:8.46667px;line-height:1.25;font-family:sans-serif;fill:#000000;fill-opacity:1;stroke:none;stroke-width:0.264583"
       x="166.36604"
       y="145.99283"
       id="text4215-9"><tspan
         sodipodi:role="line"
         id="tspan4213-08"
         style="font-style:normal;font-variant:normal;font-weight:bold;font-stretch:normal;font-size:8.46667px;font-family:FreeMono;-inkscape-font-specification:'FreeMono Bold';stroke-width:0.264583"
         x="166.36604"
         y="145.99283">140</tspan></text>
  </g>
  <g
     id="layer2"
     inkscape:label="Capa 2"
     inkscape:groupmode="layer"
     sodipodi:insensitive="true"
     style="display:none">
    <circle
       style="fill:none;stroke:#000000;stroke-width:0.183978;stroke-opacity:1"
       id="path40672"
       cx="110.62387"
       cy="142.06413"
       r="41.652699" />
    <ellipse
       style="fill:none;stroke:#000000;stroke-width:0.0916477;stroke-opacity:1"
       id="path41407"
       cx="41.891537"
       cy="89.820663"
       rx="3.7562947"
       ry="4.0677023" />
  </g>
  <g
     id="layer3"
     inkscape:label="aguja"
     sodipodi:insensitive="true"
     inkscape:groupmode="layer"
     style="display:inline">
    <path
       style="display:inline;fill:#ffd000;fill-opacity:1;stroke:#000000;stroke-width:0.423433;stroke-miterlimit:4;stroke-dasharray:none;stroke-opacity:1"
       d="m 110.89569,142.53611 2.41591,-1.38303 -2.53609,-44.226582 -2.8363,44.719702 z"
       id="path4323"
       inkscape:connector-curvature="0"
       sodipodi:nodetypes="ccccc"
       inkscape:transform-center-y="-72.633918"
       inkscape:transform-center-x="0.072190558"
       sodipodi:insensitive="true" />
  </g>
</svg>
