<?xml version="1.0" encoding="UTF-8" standalone="no"?>
<!-- Created with Inkscape (http://www.inkscape.org/) -->

<svg
   width="210mm"
   height="297mm"
   viewBox="0 0 210 297"
   version="1.1"
   id="svg157"
   inkscape:version="1.1.2 (0a00cf5339, 2022-02-04)"
   sodipodi:docname="speedo1.svg"
   xmlns:inkscape="http://www.inkscape.org/namespaces/inkscape"
   xmlns:sodipodi="http://sodipodi.sourceforge.net/DTD/sodipodi-0.dtd"
   xmlns="http://www.w3.org/2000/svg"
   xmlns:svg="http://www.w3.org/2000/svg">
  <sodipodi:namedview
     id="namedview159"
     pagecolor="#ffffff"
     bordercolor="#666666"
     borderopacity="1.0"
     inkscape:pageshadow="2"
     inkscape:pageopacity="0.0"
     inkscape:pagecheckerboard="0"
     inkscape:document-units="mm"
     showgrid="false"
     inkscape:zoom="1.7087627"
     inkscape:cx="273.00455"
     inkscape:cy="560.05435"
     inkscape:window-width="1920"
     inkscape:window-height="1013"
     inkscape:window-x="0"
     inkscape:window-y="0"
     inkscape:window-maximized="1"
     inkscape:current-layer="layer1" />
  <defs
     id="defs154">
    <inkscape:path-effect
       effect="skeletal"
       id="path-effect1756"
       is_visible="true"
       lpeversion="1"
       pattern="#rect1683"
       copytype="repeated_stretched"
       prop_scale="1"
       scale_y_rel="false"
       spacing="-0.8"
       normal_offset="0"
       tang_offset="60"
       prop_units="false"
       vertical_pattern="false"
       hide_knot="false"
       fuse_tolerance="0" />
  </defs>
  <g
     inkscape:label="Capa 1"
     inkscape:groupmode="layer"
     id="layer1">
    <rect
       style="fill:#0000ff;fill-rule:evenodd;stroke-width:0.241113"
       id="rect183"
       width="3"
       height="20"
       x="16.293526"
       y="95.254112" />
    <rect
       style="fill:#0000ff;fill-rule:evenodd;stroke-width:0.190617"
       id="rect183-1"
       width="2.5"
       height="15"
       x="21.601837"
       y="95.254112" />
    <rect
       style="fill:#0000ff;fill-rule:evenodd;stroke-width:0.190617"
       id="rect183-1-8"
       width="2.5"
       height="15"
       x="26.910149"
       y="95.254112" />
    <rect
       style="fill:#0000ff;fill-rule:evenodd;stroke-width:0.190617"
       id="rect183-1-9"
       width="2.5"
       height="15"
       x="32.218452"
       y="95.254112" />
    <rect
       style="fill:#0000ff;fill-rule:evenodd;stroke-width:0.190617"
       id="rect183-1-9-6"
       width="2.5"
       height="15"
       x="37.526772"
       y="95.254112" />
    <rect
       style="fill:#0000ff;fill-rule:evenodd;stroke-width:0.241113"
       id="rect183-4"
       width="3"
       height="20"
       x="42.835083"
       y="95.254112" />
    <path
       id="path1243"
       style="fill:none;fill-rule:evenodd;stroke:#000000;stroke-width:0.264583"
       d="m 99.863633,184.50198 3.352827,-3.86234 c -0.18243,-0.1587 -0.36276,-0.31991 -0.54091,-0.48355 l -3.458375,3.76977 c 0.212811,0.19502 0.428324,0.38709 0.646458,0.57612 z m -1.132712,-1.03136 2.653049,-2.77231 c -0.15267,-0.14615 -0.30369,-0.29404 -0.45302,-0.44361 l -2.715707,2.71116 c 0.169942,0.17023 0.34185,0.3385 0.515678,0.50476 z m -1.080903,-1.08583 2.784152,-2.64052 c -0.14543,-0.15329 -0.28912,-0.30821 -0.43101,-0.46472 l -2.843331,2.57592 c 0.161347,0.17832 0.324759,0.35478 0.490189,0.52932 z m -1.026183,-1.13739 2.907886,-2.50139 c -0.13783,-0.16006 -0.273813,-0.32166 -0.407903,-0.48474 l -2.963615,2.43331 c 0.152394,0.18605 0.306954,0.37034 0.463632,0.55282 z m -0.96887,-1.18635 3.024263,-2.3549 c -0.129776,-0.16638 -0.257605,-0.33419 -0.38344,-0.5034 l -3.076526,2.28336 c 0.142984,0.19332 0.288234,0.38499 0.435703,0.57494 z m -0.908858,-1.23261 4.177745,-2.93476 c -0.13895,-0.19685 -0.275084,-0.3955 -0.40832,-0.59586 l -4.255566,2.81448 c 0.158654,0.24098 0.320728,0.47972 0.486141,0.71614 z m 0.0194,0.0277 4.174641,-2.9394 c -0.139171,-0.19671 -0.275528,-0.39522 -0.408989,-0.59545 l -4.252586,2.81924 c 0.158921,0.2408 0.321259,0.47937 0.486934,0.71561 z m -0.847559,-1.27524 3.232779,-2.04349 c -0.112596,-0.17763 -0.223048,-0.3565 -0.331309,-0.53657 l -3.278188,1.96509 c 0.123125,0.20647 0.248713,0.41148 0.376718,0.61497 z m -0.782279,-1.31629 3.327254,-1.87508 c -0.103257,-0.18265 -0.20427,-0.36644 -0.302993,-0.55132 l -3.36919,1.79322 c 0.11243,0.21244 0.227422,0.42352 0.344929,0.63318 z m -0.714147,-1.35439 3.414363,-1.69932 c -0.09354,-0.18732 -0.18473,-0.37568 -0.273533,-0.56504 l -3.452841,1.61399 c 0.101357,0.21807 0.205376,0.43488 0.312011,0.65037 z m -0.643394,-1.38991 3.494114,-1.5162 c -0.08337,-0.19153 -0.164301,-0.384 -0.242739,-0.57737 l -3.529127,1.42741 c 0.08984,0.22323 0.182437,0.4453 0.277752,0.66616 z m -0.569941,-1.42273 4.755384,-1.76765 c -0.08303,-0.2222 -0.162529,-0.44549 -0.238413,-0.66977 l -4.805602,1.61976 c 0.0921,0.2741 0.188339,0.54669 0.288631,0.81766 z m 0.01177,0.0318 4.753358,-1.77337 c -0.08331,-0.22211 -0.163083,-0.44532 -0.239249,-0.66952 l -4.8037,1.6256 c 0.09243,0.27398 0.188982,0.54644 0.289591,0.81729 z m -0.495498,-1.45221 3.630187,-1.13235 c -0.06202,-0.19861 -0.121396,-0.39796 -0.178086,-0.59801 l -3.658345,1.03669 c 0.0658,0.23221 0.134567,0.46345 0.206244,0.69367 z m -0.416741,-1.47985 3.688033,-0.9273 c -0.05058,-0.20151 -0.09842,-0.40367 -0.143474,-0.60643 l -3.712721,0.82821 c 0.05301,0.23606 0.10908,0.47125 0.168162,0.70552 z m -0.335204,-1.50448 3.738516,-0.71491 c -0.03874,-0.20408 -0.07464,-0.40871 -0.107649,-0.61383 l -3.759743,0.61234 c 0.03981,0.23959 0.08279,0.4784 0.128876,0.7164 z m -0.25101,-1.52655 3.781641,-0.49518 c -0.02646,-0.20618 -0.04999,-0.41281 -0.07052,-0.61983 l -3.799404,0.38913 c 0.02619,0.24265 0.05563,0.48462 0.08829,0.72588 z m -0.164116,-1.54595 5.089922,-0.35743 c -0.0145,-0.23495 -0.02476,-0.47027 -0.03069,-0.70587 l -5.112537,0.18195 c 0.01294,0.29462 0.03074,0.58843 0.0533,0.88135 z m 0.0027,0.0343 5.088974,-0.36423 c -0.01484,-0.23492 -0.02543,-0.47021 -0.03169,-0.70579 l -5.111713,0.18886 c 0.01332,0.29456 0.03149,0.5883 0.05443,0.88116 z m -0.07653,-1.56228 3.845271,-0.0389 c -3.24e-4,-0.0723 -2.73e-4,-0.14471 1.56e-4,-0.21711 -8.11e-4,-0.13685 -2.73e-4,-0.27361 0.0016,-0.41025 l -3.841583,-0.0733 c -0.0045,0.16097 -0.0076,0.32216 -0.0092,0.48357 8.58e-4,0.0854 0.0021,0.17072 0.0038,0.25599 z m 0.04163,-1.56695 3.826816,0.19764 c 0.0098,-0.20824 0.02272,-0.41616 0.03863,-0.62372 l -3.811942,-0.30655 c -0.02114,0.24359 -0.03899,0.48782 -0.0535,0.73263 z m 0.137189,-1.55129 3.793283,0.42697 c 0.02265,-0.20673 0.04828,-0.41305 0.07682,-0.61891 l -3.774941,-0.53244 c -0.03493,0.24074 -0.06667,0.48222 -0.09516,0.72438 z m 0.224903,-1.53273 3.752392,0.64895 c 0.03506,-0.20477 0.07298,-0.40902 0.113734,-0.6127 l -3.730585,-0.75096 c -0.04829,0.23742 -0.09349,0.47567 -0.135541,0.71471 z m 0.309916,-1.51148 4.938901,1.15144 c 0.05318,-0.22961 0.110231,-0.45847 0.171056,-0.68649 L 90.408924,156.086 c -0.07492,0.27997 -0.145528,0.56129 -0.211758,0.84389 z m -0.0077,0.0331 4.940427,1.14522 c 0.05288,-0.22967 0.109631,-0.45859 0.17016,-0.68668 l -4.899848,-1.30275 c -0.07458,0.28008 -0.144852,0.56151 -0.210739,0.84421 z m 0.390441,-1.48807 3.649846,1.06633 c 0.05834,-0.19961 0.119356,-0.39852 0.182997,-0.59667 l -3.621184,-1.16148 c -0.07347,0.22959 -0.144036,0.46021 -0.211659,0.69182 z m 0.470165,-1.46161 3.587039,1.26642 c 0.06947,-0.19634 0.141511,-0.39188 0.216078,-0.58655 l -3.554918,-1.35808 c -0.08555,0.22496 -0.168295,0.45104 -0.248199,0.67821 z m 0.547096,-1.43216 3.51688,1.45912 c 0.0802,-0.19273 0.162875,-0.38454 0.247977,-0.5754 l -3.481287,-1.54734 c -0.09724,0.21999 -0.191777,0.44121 -0.28357,0.66362 z m 0.621368,-1.40017 3.439364,1.64448 c 0.0905,-0.18865 0.183363,-0.37628 0.278559,-0.56286 l -3.400306,-1.72922 c -0.108487,0.21455 -0.214375,0.43044 -0.317617,0.6476 z m 0.692943,-1.36546 4.472691,2.42998 c 0.114884,-0.21004 0.232912,-0.4186 0.354004,-0.62562 l -4.404387,-2.55978 c -0.144383,0.24976 -0.285179,0.50159 -0.422308,0.75542 z m -0.01605,0.0298 4.475296,2.42484 c 0.114638,-0.21015 0.232424,-0.41884 0.353276,-0.62597 l -4.407114,-2.55477 c -0.144102,0.24992 -0.284615,0.50191 -0.421458,0.7559 z m 0.760324,-1.32892 3.264374,1.98942 c 0.109606,-0.17933 0.221389,-0.35745 0.335301,-0.53431 l -3.218462,-2.06731 c -0.129489,0.20256 -0.256575,0.40664 -0.381213,0.6122 z m 0.826639,-1.289 3.164939,2.15287 c 0.118613,-0.17394 0.239303,-0.34658 0.362021,-0.51786 l -3.115571,-2.22729 c -0.139446,0.19582 -0.276591,0.39326 -0.411389,0.59228 z m 0.890096,-1.24612 3.058154,2.30895 c 0.127245,-0.16822 0.256467,-0.33502 0.387619,-0.50037 l -3.00531,-2.37992 c -0.149039,0.18873 -0.295876,0.3792 -0.440463,0.57134 z m 0.950927,-1.20069 2.944012,2.45768 c 0.135429,-0.16203 0.272735,-0.32254 0.411871,-0.4815 l -2.887703,-2.52518 c -0.158178,0.18119 -0.314253,0.36421 -0.46818,0.549 z m 1.009061,-1.15254 3.763379,3.46542 c 0.16398,-0.17786 0.33038,-0.35353 0.49914,-0.52693 l -3.667479,-3.56762 c -0.201244,0.20695 -0.399618,0.41668 -0.59504,0.62913 z m -0.02289,0.0249 3.767067,3.46136 c 0.16378,-0.17803 0.33,-0.35387 0.49857,-0.52745 l -3.671279,-3.56369 c -0.20102,0.20717 -0.399167,0.41712 -0.594358,0.62978 z m 1.063297,-1.10286 2.69658,2.73017 c 0.15037,-0.14852 0.30241,-0.29535 0.45609,-0.44042 l -2.633415,-2.79082 c -0.175005,0.16502 -0.348106,0.33206 -0.519255,0.50107 z m 1.116201,-1.04947 2.560519,2.857 c 0.15725,-0.14105 0.31609,-0.28029 0.47645,-0.41768 l -2.4939,-2.91416 c -0.18284,0.15617 -0.36388,0.31447 -0.543069,0.47484 z m 1.166189,-0.99318 2.4171,2.97645 c 0.16379,-0.1332 0.32905,-0.26449 0.49575,-0.39383 l -2.34701,-3.03017 c -0.19033,0.14697 -0.37896,0.29617 -0.56584,0.44755 z m 1.21358,-0.9343 2.26633,3.08855 c 0.16986,-0.1249 0.3411,-0.24779 0.51367,-0.36863 l -2.19277,-3.1388 c -0.19737,0.13732 -0.39313,0.27696 -0.58723,0.41888 z m 1.25827,-0.87272 2.81097,4.25776 c 0.20046,-0.13307 0.40264,-0.26324 0.60645,-0.39042 l -2.68747,-4.33236 c -0.2455,0.15153 -0.48884,0.30656 -0.72995,0.46502 z m -0.0282,0.0186 2.81573,4.25479 c 0.20033,-0.1333 0.40238,-0.2637 0.60606,-0.39112 l -2.69235,-4.3295 c -0.24533,0.1518 -0.4885,0.30711 -0.72944,0.46583 z m 1.29937,-0.80988 1.94646,3.2886 c 0.18062,-0.10722 0.36243,-0.21225 0.54537,-0.31503 l -1.86605,-3.332 c -0.21002,0.11697 -0.41863,0.23646 -0.62578,0.35843 z m 1.33885,-0.74303 1.77376,3.3788 c 0.1854,-0.0976 0.37188,-0.19299 0.55939,-0.28598 l -1.6899,-3.41873 c -0.21574,0.10603 -0.43018,0.21468 -0.64325,0.32591 z m 1.37537,-0.67334 1.59373,3.46164 c 0.18982,-0.0877 0.38062,-0.17295 0.57236,-0.25578 l -1.50638,-3.4981 c -0.22113,0.0947 -0.44105,0.19214 -0.65971,0.29224 z m 1.40932,-0.601 1.40633,3.5371 c 0.19379,-0.0773 0.38846,-0.15203 0.58396,-0.22424 l -1.31552,-3.57011 c -0.22605,0.0829 -0.45099,0.16871 -0.67477,0.25725 z m 1.44057,-0.52599 1.61546,4.807 c 0.22435,-0.0757 0.44969,-0.14773 0.67594,-0.2161 l -1.46434,-4.85399 c -0.27715,0.0835 -0.55287,0.17123 -0.82706,0.26309 z m -0.0321,0.0108 1.6213,4.80511 c 0.22426,-0.076 0.44953,-0.14831 0.67571,-0.21696 l -1.47031,-4.85222 c -0.27703,0.0838 -0.55263,0.17189 -0.8267,0.26407 z m 1.46852,-0.45 1.01402,3.66471 c 0.20037,-0.0554 0.40144,-0.10815 0.60314,-0.15813 l -0.91636,-3.69086 c -0.23453,0.0584 -0.46814,0.11986 -0.7008,0.18428 z m 1.49458,-0.36968 0.8047,3.71828 c 0.20303,-0.0437 0.40665,-0.0847 0.61081,-0.12278 l -0.70359,-3.74096 c -0.23813,0.0454 -0.47545,0.0939 -0.71192,0.14546 z m 1.51765,-0.28657 0.58803,3.76448 c 0.20536,-0.0317 0.41119,-0.0604 0.61747,-0.0862 l -0.48343,-3.7837 c -0.24142,0.0319 -0.48212,0.0671 -0.72207,0.10543 z m 1.53816,-0.20081 0.36401,3.80333 c 0.20721,-0.0191 0.4148,-0.0353 0.62273,-0.0483 l -0.25595,-3.81908 c -0.24422,0.0181 -0.48784,0.0394 -0.73079,0.0641 z m 1.55597,-0.11235 0.17685,5.11314 c 0.23317,-0.006 0.46663,-0.007 0.70028,-0.004 0.002,-3e-5 0.005,-6e-5 0.007,-9e-5 l 0.002,-5.13216 c -0.003,-3e-5 -0.006,-6e-5 -0.009,-10e-5 -0.29311,0.003 -0.58552,0.0107 -0.87713,0.0233 z m -0.0345,0.002 0.18377,5.11232 c 0.23559,-0.006 0.47147,-0.008 0.70756,-0.005 l -0.005,-5.13184 c -0.29614,0.003 -0.59155,0.0114 -0.88615,0.0245 z m 1.56839,-0.0101 -0.0995,3.83867 c 0.20881,0.004 0.41734,0.0118 0.62555,0.0223 l 0.20984,-3.82524 c -0.24473,-0.0153 -0.49006,-0.0272 -0.73593,-0.0357 z m 1.55841,0.0997 -0.33189,3.80821 c 0.20739,0.0173 0.41441,0.0377 0.62101,0.061 l 0.43878,-3.79132 c -0.24195,-0.0292 -0.4846,-0.0552 -0.7279,-0.0779 z m 1.54083,0.18852 -0.55695,3.7704 c 0.20564,0.0299 0.41081,0.0627 0.61546,0.0984 l 0.6604,-3.75004 c -0.23886,-0.0428 -0.47851,-0.0824 -0.71891,-0.1188 z m 1.5207,0.27467 -0.77465,3.72523 c 0.20343,0.0421 0.40628,0.087 0.60851,0.13461 l 0.87463,-3.70141 c -0.23529,-0.0559 -0.47147,-0.10869 -0.70849,-0.15843 z m 1.49787,0.35811 -1.31333,4.89698 c 0.22797,0.061 0.45511,0.12586 0.68133,0.19438 l 1.46751,-4.85306 c -0.27709,-0.0837 -0.55562,-0.16314 -0.83551,-0.2383 z m -0.0328,-0.009 -1.30724,4.89863 c 0.22804,0.0608 0.45525,0.12528 0.68154,0.1935 l 1.46154,-4.85483 c -0.2772,-0.0833 -0.55584,-0.16248 -0.83584,-0.2373 z m 1.47293,0.4371 -1.18357,3.61422 c 0.19779,0.0649 0.39481,0.13236 0.59101,0.20241 l 1.2767,-3.58354 c -0.22697,-0.0805 -0.45504,-0.15827 -0.68414,-0.23309 z m 1.4449,0.51526 -1.37938,3.54713 c 0.19427,0.0757 0.38767,0.15402 0.58015,0.23475 l 1.46902,-3.513 c -0.22209,-0.0924 -0.44537,-0.18203 -0.66979,-0.26888 z m 1.41388,0.59061 -1.5678,3.4727 c 0.1904,0.0862 0.37984,0.17489 0.56826,0.26592 l 1.654,-3.4351 c -0.21688,-0.10383 -0.43505,-0.20502 -0.65446,-0.30352 z m 1.38031,0.66332 -1.74887,3.3909 c 0.18608,0.0963 0.37109,0.19489 0.55498,0.29576 l 1.83161,-3.34983 c -0.2112,-0.11484 -0.42379,-0.22713 -0.63772,-0.33683 z m 1.34404,0.73332 -2.56347,4.40237 c 0.20693,0.12127 0.4123,0.2456 0.61604,0.37291 l 2.69005,-4.33085 c -0.24541,-0.15167 -0.49297,-0.29984 -0.74262,-0.44443 z m -0.0293,-0.0169 -2.55847,4.40511 c 0.20705,0.12102 0.41255,0.24512 0.61642,0.37219 l 2.68517,-4.33369 c -0.24558,-0.15141 -0.49332,-0.2993 -0.74312,-0.44361 z m 1.30596,0.79917 -2.08535,3.20745 c 0.17627,0.11491 0.35127,0.23194 0.52496,0.35104 l 2.16123,-3.15953 c -0.19871,-0.13535 -0.39901,-0.26835 -0.60084,-0.39896 z m 1.26447,0.86391 -2.24453,3.10374 c 0.17064,0.12367 0.33992,0.24936 0.50779,0.37702 l 2.31692,-3.05236 c -0.19172,-0.14506 -0.38513,-0.28787 -0.58018,-0.4284 z m 1.22003,0.9258 -2.39633,2.99268 c 0.16466,0.13205 0.32786,0.26603 0.48955,0.40187 l 2.46528,-2.93781 c -0.1844,-0.15441 -0.37058,-0.30667 -0.5585,-0.45674 z m 1.17302,0.98506 -2.54078,2.87426 c 0.15823,0.13999 0.31489,0.2818 0.46994,0.42538 l 2.60626,-2.81593 c -0.1766,-0.16329 -0.35509,-0.32455 -0.53542,-0.48371 z m 1.12331,1.04162 -3.57052,3.66467 c 0.17327,0.16889 0.34428,0.34012 0.51293,0.51362 l 3.6695,-3.56553 c -0.20113,-0.20707 -0.40513,-0.41135 -0.61191,-0.61276 z m -0.0242,-0.0236 -3.56659,3.66848 c 0.17345,0.16871 0.34464,0.33976 0.51348,0.51308 l 3.66568,-3.56947 c -0.20135,-0.20684 -0.40556,-0.4109 -0.61257,-0.61209 z m 1.07208,1.09433 -2.80481,2.61836 c 0.14425,0.15444 0.28673,0.31051 0.4274,0.46815 l 2.86345,-2.55319 c -0.15995,-0.17963 -0.32198,-0.35742 -0.48604,-0.53332 z m 1.01713,1.14566 -2.92736,2.47802 c 0.13652,0.16108 0.27117,0.32369 0.40392,0.48777 l 2.98251,-2.40939 c -0.15086,-0.18723 -0.3039,-0.37271 -0.45907,-0.5564 z m 0.95927,1.19408 -3.04254,2.33032 c 0.12843,0.16737 0.25489,0.33616 0.37934,0.50633 l 3.09423,-2.25822 c -0.14141,-0.19448 -0.2851,-0.3873 -0.43103,-0.57843 z m 0.89882,1.23989 -3.15036,2.17528 c 0.11988,0.1732 0.23769,0.34772 0.35339,0.52351 l 3.19859,-2.09971 c -0.13151,-0.20125 -0.2654,-0.40096 -0.40162,-0.59908 z m 0.83567,1.28302 -4.33446,2.68386 c 0.12701,0.2039 0.25104,0.40943 0.37201,0.61651 l 4.40583,-2.55712 c -0.14423,-0.24985 -0.29206,-0.49763 -0.44338,-0.74325 z m -0.0178,-0.0288 -4.33161,2.68875 c 0.12724,0.20377 0.25151,0.40918 0.37272,0.61614 l 4.4031,-2.56213 c -0.14451,-0.24969 -0.29261,-0.4973 -0.44421,-0.74276 z m 0.77129,1.32258 -3.34194,1.84694 c 0.10172,0.18348 0.20118,0.36807 0.29833,0.55375 l 3.38332,-1.76452 c -0.11067,-0.21342 -0.22392,-0.42549 -0.33971,-0.63617 z m 0.70287,1.36049 -3.42786,1.66997 c 0.0919,0.188 0.18142,0.37702 0.26854,0.56702 l 3.46577,-1.58409 c -0.0995,-0.2189 -0.20165,-0.43655 -0.30645,-0.6529 z m 0.63161,1.39544 -3.50642,1.48566 c 0.0817,0.19218 0.16089,0.38528 0.2376,0.57926 l 3.54086,-1.3963 c -0.0879,-0.22403 -0.17861,-0.44692 -0.27204,-0.66862 z m 0.55771,1.42783 -3.57761,1.29398 c 0.071,0.1959 0.13947,0.39262 0.20532,0.59011 l 3.6086,-1.20116 c -0.0759,-0.22871 -0.15469,-0.45637 -0.23631,-0.68293 z m 0.48112,1.4575 -4.85531,1.45995 c 0.0682,0.22631 0.1326,0.45354 0.19327,0.68159 l 4.89907,-1.30561 c -0.0747,-0.28002 -0.15377,-0.55869 -0.23703,-0.83593 z m -0.01,-0.0325 -4.85353,1.46592 c 0.0684,0.22623 0.13318,0.45339 0.19414,0.68138 l 4.89743,-1.3117 c -0.0751,-0.27992 -0.15445,-0.55848 -0.23804,-0.8356 z m 0.40361,1.48392 -3.69676,0.8932 c 0.0487,0.202 0.0946,0.40463 0.13774,0.60783 l 3.72089,-0.79352 c -0.0509,-0.23671 -0.10487,-0.47256 -0.16187,-0.70751 z m 0.32169,1.50841 -3.74604,0.6796 c 0.0368,0.20441 0.0707,0.40935 0.10166,0.61476 l 3.76671,-0.57647 c -0.0376,-0.24007 -0.0784,-0.47938 -0.12233,-0.71789 z m 0.23703,1.5299 -3.78797,0.45866 c 0.0244,0.20648 0.0459,0.41339 0.0644,0.62069 l 3.80517,-0.35205 c -0.0239,-0.2431 -0.0511,-0.48555 -0.0816,-0.7273 z m 0.1497,1.54885 -3.82254,0.23036 c 0.0116,0.20809 0.0202,0.4165 0.0257,0.6252 l 3.83627,-0.12028 c -0.01,-0.24567 -0.023,-0.49078 -0.0395,-0.73528 z m 0.0597,1.56508 -5.13304,-0.007 c -0.003,0.23611 -0.0111,0.47242 -0.0233,0.70885 l 5.14922,0.189 c 0.007,-0.2976 0.01,-0.59455 0.007,-0.89079 z"
       inkscape:path-effect="#path-effect1756"
       inkscape:original-d="m 144.7185,162.83635 a 26.336302,26.336302 0 0 1 -26.3363,26.3363 26.336302,26.336302 0 0 1 -26.3363,-26.3363 26.336302,26.336302 0 0 1 26.3363,-26.3363 26.336302,26.336302 0 0 1 26.3363,26.3363 z" />
    <path
       id="rect1683"
       style="fill:#0000ff;fill-rule:evenodd;stroke-width:0.0618727"
       d="m 20.842139,142.05179 v 5.13235 h 0.769924 v -5.13235 z m 1.362153,0 v 3.84923 h 0.64156 v -3.84923 z m 1.362286,0 v 3.84923 h 0.641427 v -3.84923 z m 1.362154,0 v 3.84923 h 0.641559 v -3.84923 z m 1.362153,0 v 3.84923 h 0.64156 v -3.84923 z m 1.362154,0 v 5.13235 h 0.769924 v -5.13235 z" />
  </g>
</svg>
