<?xml version="1.0" encoding="UTF-8" standalone="no"?>
<!-- Created with Inkscape (http://www.inkscape.org/) -->

<svg
   width="210mm"
   height="297mm"
   viewBox="0 0 210 297"
   version="1.1"
   id="svg157"
   inkscape:version="1.1.2 (0a00cf5339, 2022-02-04)"
   sodipodi:docname="speedo2.svg"
   xmlns:inkscape="http://www.inkscape.org/namespaces/inkscape"
   xmlns:sodipodi="http://sodipodi.sourceforge.net/DTD/sodipodi-0.dtd"
   xmlns="http://www.w3.org/2000/svg"
   xmlns:svg="http://www.w3.org/2000/svg">
  <sodipodi:namedview
     id="namedview159"
     pagecolor="#ffffff"
     bordercolor="#666666"
     borderopacity="1.0"
     inkscape:pageshadow="2"
     inkscape:pageopacity="0.0"
     inkscape:pagecheckerboard="0"
     inkscape:document-units="mm"
     showgrid="false"
     inkscape:zoom="1.7087627"
     inkscape:cx="273.00455"
     inkscape:cy="560.05435"
     inkscape:window-width="1920"
     inkscape:window-height="1013"
     inkscape:window-x="0"
     inkscape:window-y="0"
     inkscape:window-maximized="1"
     inkscape:current-layer="layer1" />
  <defs
     id="defs154">
    <inkscape:path-effect
       effect="skeletal"
       id="path-effect1756"
       is_visible="true"
       lpeversion="1"
       pattern="m -104.00405,114.07891 v 9.60823 h 1.44137 v -9.60823 z m 2.55008,0 v 7.20611 h 1.20106 v -7.20611 z m 2.550321,0 v 7.20611 h 1.20081 v -7.20611 z m 2.550077,0 v 7.20611 h 1.201057 v -7.20611 z m 2.550074,0 v 7.20611 h 1.201059 v -7.20611 z m 2.550077,0 v 9.60823 h 1.441368 v -9.60823 z"
       copytype="repeated_stretched"
       prop_scale="1"
       scale_y_rel="false"
       spacing="-1.5"
       normal_offset="0"
       tang_offset="127"
       prop_units="false"
       vertical_pattern="false"
       hide_knot="false"
       fuse_tolerance="0" />
  </defs>
  <g
     inkscape:label="Capa 1"
     inkscape:groupmode="layer"
     id="layer1">
    <path
       id="path1243"
       style="fill:none;fill-rule:evenodd;stroke:#000000;stroke-width:0.495323"
       d="m 33.466225,181.62603 7.96274,-5.27546 c -0.247737,-0.37191 -0.490139,-0.74699 -0.727058,-1.12508 l -8.101631,5.04645 c 0.282254,0.4554 0.570953,0.90681 0.865949,1.35409 z m -1.505775,-2.41195 6.15335,-3.64975 c -0.199452,-0.33526 -0.394852,-0.67271 -0.586112,-1.01225 l -6.234067,3.50054 c 0.217664,0.38978 0.439969,0.77696 0.666829,1.16146 z m -1.382705,-2.48479 6.321159,-3.32934 c -0.181813,-0.34407 -0.359392,-0.69014 -0.53265,-1.03813 l -6.395476,3.17379 c 0.19753,0.40034 0.399881,0.79826 0.606967,1.19368 z m -1.254438,-2.55219 6.475396,-2.99542 c -0.163475,-0.35225 -0.322531,-0.70631 -0.477084,-1.06211 l -6.543345,2.83344 c 0.176701,0.41029 0.358408,0.81835 0.545033,1.22409 z m -1.121373,-2.61492 6.616079,-2.64793 c -0.144325,-0.35958 -0.28405,-0.72079 -0.419088,-1.08355 l -6.677644,2.47957 c 0.155058,0.41938 0.315305,0.83672 0.480653,1.25191 z m -0.983377,-2.67269 8.991022,-3.04922 c -0.141732,-0.41629 -0.276817,-0.83444 -0.405104,-1.25428 l -9.078839,2.76913 c 0.156598,0.51417 0.320954,1.02568 0.492921,1.53437 z m 0.02102,0.0621 8.987329,-3.06049 c -0.142274,-0.41614 -0.277905,-0.83414 -0.406746,-1.25385 l -9.075379,2.78064 c 0.157229,0.51396 0.32221,1.02524 0.494796,1.5337 z m -0.843789,-2.72439 6.854325,-1.92106 c -0.104186,-0.3718 -0.203412,-0.74487 -0.297589,-1.11912 l -6.903269,1.74009 c 0.109991,0.43508 0.225531,0.86848 0.346533,1.30009 z m -0.696095,-2.77267 6.954667,-1.5332 c -0.08271,-0.37674 -0.160281,-0.75457 -0.232623,-1.13341 l -6.997218,1.34587 c 0.08602,0.44178 0.177778,0.88205 0.275174,1.32074 z m -0.543335,-2.81551 7.041445,-1.13181 c -0.0605,-0.38107 -0.11567,-0.76305 -0.165429,-1.14585 l -7.07762,0.93806 c 0.06132,0.44789 0.128547,0.89445 0.201604,1.3396 z m -0.385713,-2.85367 7.114667,-0.71687 c -0.03749,-0.38454 -0.06948,-0.76981 -0.09586,-1.15572 l -7.14446,0.51673 c 0.03582,0.45313 0.07773,0.90511 0.125658,1.35586 z m -0.22316,-2.88689 9.565866,-0.3845 c -0.01313,-0.43739 -0.01831,-0.87532 -0.01539,-1.31365 l -9.602841,0.0536 c 0.0084,0.5496 0.02594,1.09784 0.05236,1.64458 z m 0.0033,0.0667 9.564239,-0.39783 c -0.01378,-0.43735 -0.01961,-0.87524 -0.01735,-1.31354 l -9.601449,0.0671 c 0.0092,0.54948 0.02741,1.09761 0.05456,1.64422 z m -0.04079,-2.912 7.191277,0.14196 c 0.0056,-0.38797 0.01692,-0.77547 0.03392,-1.16239 l -7.166998,-0.34761 c -0.0256,0.45497 -0.04502,0.91101 -0.0582,1.36804 z m 0.16769,-2.89719 7.136137,0.57504 c 0.02962,-0.38545 0.0648,-0.77024 0.105471,-1.15428 l -7.10548,-0.77425 c -0.05139,0.44994 -0.09679,0.90113 -0.136128,1.35349 z m 0.331887,-2.86533 7.067448,0.99452 c 0.05289,-0.38232 0.111164,-0.76379 0.174742,-1.14432 l -7.0304,-1.18739 c -0.07643,0.44432 -0.147053,0.89008 -0.21179,1.33719 z m 0.491158,-2.82882 6.985204,1.40044 c 0.07538,-0.37833 0.155961,-0.75562 0.241664,-1.1318 L 25.7858,142.1435 c -0.10068,0.43784 -0.195741,0.8773 -0.285095,1.31829 z m 0.645495,-2.78738 9.185954,2.39043 c 0.110078,-0.42409 0.227149,-0.84667 0.351064,-1.26759 l -9.105763,-2.67814 c -0.151608,0.51587 -0.295409,1.03435 -0.431255,1.5553 z m -0.01654,0.0636 9.189094,2.3786 c 0.109509,-0.42421 0.226017,-0.84692 0.349375,-1.26798 l -9.109138,-2.66654 c -0.150972,0.51607 -0.294133,1.03476 -0.429331,1.55592 z m 0.791519,-2.74213 6.782721,2.16306 c 0.117561,-0.36816 0.239967,-0.73492 0.367131,-1.10021 l -6.726669,-2.33693 c -0.146349,0.42274 -0.287439,0.84746 -0.423183,1.27408 z m 0.936197,-2.69118 6.660114,2.52866 c 0.137719,-0.36178 0.280097,-0.72199 0.427049,-1.08054 l -6.597691,-2.69612 c -0.168261,0.41387 -0.331447,0.82989 -0.489472,1.248 z m 1.075763,-2.6348 6.523964,2.88069 c 0.157156,-0.35479 0.318791,-0.70782 0.484819,-1.05901 l -6.455144,-3.04178 c -0.18947,0.40439 -0.374045,0.81112 -0.553639,1.2201 z m 1.210474,-2.57372 6.374261,3.21915 c 0.17579,-0.34694 0.355878,-0.69194 0.540176,-1.03492 l -6.299058,-3.37387 c -0.209867,0.39405 -0.415022,0.79063 -0.615379,1.18964 z m 1.340255,-2.50773 8.281411,4.72545 c 0.221716,-0.38603 0.449118,-0.76924 0.682056,-1.1495 l -8.150378,-4.96232 c -0.277578,0.45825 -0.548657,0.92042 -0.813089,1.38637 z m -0.03224,0.0569 8.286618,4.71569 c 0.221254,-0.38625 0.448199,-0.76971 0.680687,-1.1502 l -8.155821,-4.9528 c -0.277049,0.45857 -0.547594,0.92106 -0.811484,1.38731 z m 1.462287,-2.43848 6.03841,3.84841 c 0.210351,-0.32915 0.424638,-0.656 0.642776,-0.98047 l -5.950585,-3.9905 c -0.247914,0.37133 -0.491476,0.74555 -0.730601,1.12256 z m 1.582468,-2.36294 5.848337,4.14654 c 0.226633,-0.31893 0.457019,-0.63538 0.691072,-0.94926 l -5.754148,-4.28223 c -0.265949,0.35861 -0.527732,0.72029 -0.785261,1.08495 z m 1.697413,-2.28203 5.644727,4.4311 c 0.242234,-0.30807 0.488039,-0.61347 0.73733,-0.91613 l -5.544135,-4.56042 c -0.283323,0.34526 -0.562659,0.69377 -0.837922,1.04545 z m 1.807566,-2.19641 5.427565,4.70211 c 0.257012,-0.29637 0.517414,-0.58989 0.78112,-0.88047 l -5.320588,-4.82505 c -0.299865,0.33107 -0.595926,0.66557 -0.888097,1.00341 z m 1.912791,-2.10584 6.929189,6.61279 c 0.310327,-0.32495 0.625031,-0.64577 0.943965,-0.96233 l -6.747317,-6.79882 c -0.38052,0.3776 -0.755849,0.76044 -1.125837,1.14836 z m -0.04512,0.0474 6.936466,6.6051 c 0.30997,-0.32528 0.624325,-0.64644 0.942915,-0.96335 l -6.754828,-6.79136 c -0.380098,0.37802 -0.754998,0.76128 -1.124553,1.14961 z m 2.010831,-2.01261 4.958344,5.19799 c 0.283952,-0.27095 0.570932,-0.53869 0.860854,-0.80315 l -4.838746,-5.30831 c -0.330289,0.30072 -0.657135,0.60524 -0.980452,0.91347 z m 2.106502,-1.91247 4.700805,5.42866 c 0.296364,-0.25689 0.595572,-0.51039 0.89754,-0.76041 l -4.574849,-5.53259 c -0.344454,0.28417 -0.685648,0.57231 -1.023496,0.86434 z m 2.196838,-1.80704 4.429736,5.64576 c 0.308122,-0.24216 0.618909,-0.48075 0.932273,-0.71568 l -4.29737,-5.74331 c -0.357987,0.26694 -0.712895,0.53805 -1.064639,0.81323 z m 2.282434,-1.69686 4.145113,5.8493 c 0.319046,-0.2266 0.640574,-0.44945 0.964498,-0.66845 l -4.006363,-5.94048 c -0.370674,0.2489 -0.738452,0.50214 -1.103248,0.75963 z m 2.363102,-1.58175 5.129291,8.05246 c 0.375909,-0.24083 0.754888,-0.47624 1.136788,-0.70606 L 52.198241,106.455 c -0.460433,0.27393 -0.916983,0.5544 -1.3695,0.84125 z m -0.0552,0.035 5.138636,8.04684 c 0.375659,-0.24128 0.754394,-0.47713 1.136057,-0.70741 l -4.906157,-8.18226 c -0.460118,0.27446 -0.916346,0.55545 -1.368536,0.84283 z m 2.437149,-1.46451 3.542523,6.21182 c 0.338364,-0.19356 0.678847,-0.38301 1.021366,-0.56826 l -3.391153,-6.29038 c -0.393476,0.21094 -0.784417,0.42657 -1.172736,0.64682 z m 2.5083,-1.33976 3.217518,6.37503 c 0.346909,-0.17567 0.695755,-0.34704 1.046453,-0.51402 l -3.059796,-6.44718 c -0.403773,0.19053 -0.805193,0.38595 -1.204175,0.58617 z m 2.574038,-1.20983 2.878989,6.52467 c 0.354823,-0.15707 0.711402,-0.30965 1.069651,-0.45766 l -2.714851,-6.59045 c -0.413462,0.16944 -0.824754,0.34395 -1.233789,0.52344 z m 2.635077,-1.07509 2.526906,6.66075 c 0.361892,-0.13765 0.725357,-0.27063 1.090309,-0.39887 l -2.356383,-6.72015 c -0.422295,0.14754 -0.842601,0.30032 -1.260832,0.45827 z m 2.691187,-0.93541 2.881717,9.04445 c 0.418462,-0.1337 0.838687,-0.26066 1.260527,-0.38073 l -2.598164,-9.12879 c -0.517319,0.14722 -1.032062,0.30229 -1.54408,0.46507 z m -0.06247,0.0199 2.893129,9.04089 c 0.418319,-0.13424 0.838407,-0.26175 1.260116,-0.38238 l -2.609811,-9.12548 c -0.51711,0.14786 -1.031637,0.30357 -1.543434,0.46697 z m 2.741242,-0.79419 1.790948,6.8899 c 0.373586,-0.097 0.748385,-0.18896 1.12431,-0.27582 l -1.607804,-6.93668 c -0.437474,0.10195 -0.873321,0.20951 -1.307454,0.3226 z m 2.787861,-0.644821 1.398476,6.985641 c 0.37827,-0.0753 0.757569,-0.14531 1.137812,-0.21007 l -1.208987,-7.026022 c -0.443907,0.07772 -0.88637,0.161234 -1.327301,0.250451 z m 2.829014,-0.490388 0.992487,7.067819 c 0.382335,-0.0528 0.765517,-0.10017 1.149462,-0.14208 l -0.796576,-7.101826 c -0.449749,0.05275 -0.898236,0.111473 -1.345373,0.176087 z m 2.865494,-0.331093 0.572945,7.136442 c 0.385548,-0.0295 0.771762,-0.0534 1.158554,-0.0717 L 76.14128,98.966747 c -0.454726,0.02699 -0.908371,0.06013 -1.36085,0.09935 z m 2.897048,-0.166863 0.186466,9.588765 c 0.245163,-0.002 0.490469,-0.001 0.735892,0.002 0.193028,-0.002 0.385985,-0.003 0.578856,-0.003 l 0.14681,-9.593072 c -0.241622,-0.0059 -0.483515,-0.01014 -0.725666,-0.01257 -0.307879,0.0031 -0.61534,0.009 -0.922358,0.0178 z m -0.06693,0.002 0.199945,9.587279 c 0.262958,-0.003 0.526082,-0.002 0.78934,0.001 0.175194,-0.002 0.350328,-0.003 0.525393,-0.003 l 0.133292,-9.594515 c -0.219342,-0.0051 -0.438907,-0.0088 -0.658685,-0.01097 -0.330253,0.0033 -0.660026,0.0099 -0.989285,0.01976 z m 2.912176,0.03664 -0.290467,7.174078 c 0.387235,0.0138 0.773923,0.0333 1.159981,0.0585 l 0.493942,-7.147639 c -0.453382,-0.03444 -0.907895,-0.06278 -1.363456,-0.08492 z m 2.887019,0.223984 -0.718938,7.114344 c 0.384449,0.0376 0.768171,0.0807 1.151079,0.12923 l 0.915988,-7.08152 c -0.44809,-0.05997 -0.897495,-0.114014 -1.348129,-0.162054 z m 2.853492,0.386501 -1.133814,7.041053 c 0.381049,0.0606 0.761188,0.12654 1.14033,0.19772 l 1.324521,-7.001842 c -0.44221,-0.08475 -0.885918,-0.163752 -1.331037,-0.236931 z m 2.815306,0.544093 -1.535135,6.95421 c 0.376796,0.0828 0.752498,0.17082 1.127022,0.26385 l 1.719459,-6.90861 c -0.435464,-0.10873 -0.872608,-0.21191 -1.311346,-0.30945 z m 2.772192,0.69676 -2.563893,9.13849 c 0.422223,0.11843 0.842849,0.24375 1.261731,0.37584 l 2.848136,-9.05484 c -0.512667,-0.16093 -1.028041,-0.31414 -1.545974,-0.45949 z m -0.06322,-0.0177 -2.552208,9.14178 c 0.422353,0.11786 0.843115,0.24263 1.262139,0.37416 l 2.836687,-9.05835 c -0.512888,-0.1603 -1.028476,-0.31288 -1.546618,-0.45759 z m 2.725305,0.84115 -2.288666,6.74263 c 0.366107,0.1245 0.73076,0.25378 1.093873,0.38776 l 2.460368,-6.68441 c -0.419847,-0.15389 -0.841733,-0.30257 -1.265575,-0.44598 z m 2.672682,0.98416 -2.64967,6.61542 c 0.359471,0.14439 0.717306,0.29338 1.07342,0.44688 l 2.814955,-6.55083 c -0.410708,-0.17553 -0.823638,-0.34605 -1.238705,-0.51147 z m 2.614618,1.12204 -2.997086,6.47467 c 0.35221,0.16357 0.702601,0.33155 1.051089,0.50387 l 3.156024,-6.40369 c -0.40097,-0.19648 -0.80434,-0.38812 -1.210027,-0.57485 z m 2.551877,1.25507 -3.33095,6.32037 c 0.344101,0.18194 0.686202,0.36811 1.02622,0.55844 l 3.48349,-6.243 c -0.39036,-0.21661 -0.78331,-0.42858 -1.17876,-0.63581 z m 2.4842,1.38319 -4.868382,8.20342 c 0.382592,0.22849 0.762292,0.46257 1.138932,0.70211 l 5.10178,-8.06892 c -0.45348,-0.28533 -0.91097,-0.56425 -1.37233,-0.83661 z m -0.0563,-0.0332 -4.858767,8.20877 c 0.382837,0.22804 0.762767,0.46167 1.139657,0.70077 l 5.09241,-8.07451 c -0.45381,-0.28481 -0.91162,-0.5632 -1.3733,-0.83503 z m 2.41332,1.50358 -3.95111,5.97542 c 0.32579,0.21598 0.64922,0.43584 0.9702,0.65948 l 4.09104,-5.88543 c -0.36712,-0.25414 -0.73719,-0.50399 -1.11013,-0.74947 z m 2.33611,1.62209 -4.24465,5.78075 c 0.31531,0.232 0.62808,0.46769 0.93821,0.70698 l 4.37817,-5.68439 c -0.35414,-0.27191 -0.71141,-0.53972 -1.07173,-0.80334 z m 2.25352,1.73536 -4.5246,5.57254 c 0.30418,0.24733 0.60563,0.49818 0.90428,0.75245 l 4.65176,-5.46978 c -0.34053,-0.28902 -0.68437,-0.57412 -1.03144,-0.85521 z m 2.16622,1.84383 -4.79101,5.35078 c 0.29222,0.26185 0.58153,0.52703 0.86784,0.79545 l 4.91179,-5.24163 c -0.32607,-0.3053 -0.65564,-0.60686 -0.98862,-0.9046 z m 2.07399,1.94739 -6.7252,6.82066 c 0.31994,0.31553 0.63568,0.63535 0.94705,0.95931 l 6.90776,-6.63532 c -0.37127,-0.38671 -0.74785,-0.7683 -1.12961,-1.14465 z m -0.0466,-0.0459 -6.71765,6.82808 c 0.32028,0.31518 0.63636,0.63466 0.94809,0.95828 l 6.90044,-6.64298 c -0.37169,-0.38628 -0.7487,-0.76746 -1.13088,-1.14338 z m 1.97911,2.04378 -5.2778,4.87246 c 0.26629,0.28827 0.5293,0.57951 0.78896,0.87363 l 5.38596,-4.75069 c -0.29521,-0.33521 -0.59428,-0.66704 -0.89712,-0.9954 z m 1.8773,2.13779 -5.50387,4.61032 c 0.25196,0.30042 0.50047,0.60362 0.74544,0.90952 l 5.60562,-4.48219 c -0.27839,-0.34911 -0.56081,-0.69502 -0.84719,-1.03765 z m 1.7702,2.22645 -5.71637,4.33464 c 0.23696,0.31192 0.4703,0.62644 0.69991,0.94347 l 5.81175,-4.20011 c -0.2609,-0.36238 -0.52603,-0.72174 -0.79529,-1.078 z m 1.65833,2.31036 -5.9153,4.04543 c 0.22114,0.32258 0.43847,0.64757 0.6519,0.9749 l 6.00431,-3.9045 c -0.24259,-0.37481 -0.48959,-0.74678 -0.74091,-1.11583 z m 1.54156,2.38936 -8.13434,4.99024 c 0.23426,0.37954 0.463,0.76207 0.68607,1.14742 l 8.26606,-4.75406 c -0.26602,-0.46504 -0.53867,-0.92629 -0.81779,-1.3836 z m -0.0341,-0.0558 -8.12885,4.99973 c 0.2347,0.3793 0.4639,0.76159 0.68743,1.14671 l 8.26082,-4.76378 c -0.26656,-0.46473 -0.53974,-0.92567 -0.8194,-1.38266 z m 1.42268,2.46178 -6.26873,3.43374 c 0.18759,0.34137 0.371,0.6848 0.55015,1.03021 l 6.34512,-3.2802 c -0.20411,-0.39709 -0.41299,-0.7917 -0.62654,-1.18375 z m 1.29626,2.53124 -6.42734,3.10414 c 0.16942,0.34965 0.33449,0.70119 0.49512,1.05451 l 6.49732,-2.94424 c -0.18345,-0.40712 -0.37185,-0.81195 -0.5651,-1.21441 z m 1.16464,2.59531 -6.57237,2.76101 c 0.15056,0.35731 0.29657,0.71631 0.43796,1.07692 l 6.636,-2.5947 c -0.1621,-0.41654 -0.32932,-0.83098 -0.50159,-1.24323 z m 1.02824,2.65468 -6.70386,2.40432 c 0.13088,0.36411 0.25704,0.72974 0.37839,1.09679 l 6.76109,-2.23163 c -0.13992,-0.42512 -0.28516,-0.8483 -0.43562,-1.26948 z m 0.88688,2.70911 -9.09579,2.71213 c 0.12555,0.42053 0.24427,0.84273 0.35602,1.26645 l 9.17667,-2.42511 c -0.13774,-0.52036 -0.28343,-1.03823 -0.4369,-1.55347 z m -0.0188,-0.0629 -9.09238,2.72368 c 0.12611,0.42039 0.24539,0.84246 0.35771,1.26606 l 9.17349,-2.4369 c -0.13839,-0.52016 -0.28471,-1.03782 -0.43882,-1.55284 z m 0.74403,2.75752 -6.92391,1.65927 c 0.0897,0.37529 0.17432,0.75173 0.25377,1.12923 l 6.96853,-1.47395 c -0.0938,-0.43978 -0.19331,-0.87799 -0.29839,-1.31455 z m 0.59297,2.80248 -7.01505,1.26219 c 0.0677,0.37971 0.13015,0.76039 0.18724,1.14195 l 7.05327,-1.07054 c -0.0693,-0.44595 -0.14451,-0.89051 -0.22546,-1.3336 z m 0.43688,2.84195 -7.09263,0.8516 c 0.045,0.38351 0.0845,0.76781 0.11846,1.15281 l 7.12447,-0.65353 c -0.0441,-0.45152 -0.0942,-0.90184 -0.1503,-1.35088 z m 0.2759,2.87675 -7.15665,0.42747 c 0.0214,0.38646 0.0372,0.77352 0.0473,1.16111 l 7.18211,-0.223 c -0.0181,-0.45624 -0.0423,-0.91146 -0.0728,-1.36558 z m 0.11,2.90664 -9.60958,-0.0137 c -0.006,0.43848 -0.0205,0.87733 -0.0431,1.31639 l 9.63962,0.35151 c 0.0136,-0.55264 0.0179,-1.10411 0.0131,-1.65425 z"
       inkscape:path-effect="#path-effect1756"
       inkscape:original-d="M 127.90379,152.9895 A 49.303957,49.303957 0 0 1 78.599836,202.29346 49.303957,49.303957 0 0 1 29.295883,152.9895 49.303957,49.303957 0 0 1 78.599836,103.68555 49.303957,49.303957 0 0 1 127.90379,152.9895 Z" />
  </g>
</svg>
